<svg width="191" height="59" viewBox="0 0 191 59" fill="none" xmlns="http://www.w3.org/2000/svg">
<path d="M25.6876 14.4411L25.6876 17.7209L28.9004 17.7209L32.1133 17.7209L32.1133 0.518799L28.9004 0.518799L25.6876 0.518798L25.6876 3.73164L28.9004 3.73164L28.9004 14.4411L25.6876 14.4411Z" fill="#12E0B8"/>
<path d="M15.9821 22.2724L18.4587 24.2804L20.4667 21.7369L22.4747 19.1934L9.0879 8.48396L7.07987 11.0275L5.07185 13.571L7.54841 15.579L9.55643 13.0355L17.9901 19.7289L15.9821 22.2724Z" fill="#12E0B8"/>
<path d="M15.9821 34.7222L19.1281 33.9859L18.3918 30.84L17.7224 27.6941L0.921958 31.5093L1.65823 34.6552L2.39451 37.8011L5.54041 37.0649L4.80414 33.919L15.3128 31.5763L15.9821 34.7222Z" fill="#12E0B8"/>
<path d="M25.7545 42.4196L27.1602 39.5414L24.2151 38.1358L21.3369 36.7302L13.8403 52.192L16.7854 53.5976L19.6635 55.0032L21.0691 52.1251L18.191 50.7194L22.8094 41.014L25.7545 42.4196Z" fill="#12E0B8"/>
<path d="M37.8696 39.6084L36.464 36.7302L33.5858 38.1358L30.6407 39.5414L38.1373 55.0032L41.0155 53.5976L43.8937 52.192L42.555 49.3138L39.6099 50.7194L34.9245 41.014L37.8696 39.6084Z" fill="#12E0B8"/>
<path d="M43.2243 28.4304L40.0784 27.6941L39.3422 30.84L38.6728 33.9859L55.4064 37.8011L56.1426 34.6552L56.8789 31.5093L53.733 30.7731L52.9967 33.919L42.4881 31.5763L43.2243 28.4304Z" fill="#12E0B8"/>
<path d="M37.8027 17.1854L35.2592 19.1935L37.2672 21.737L39.2752 24.2805L52.729 13.571L50.721 11.0275L48.713 8.48399L46.2364 10.492L48.2444 13.0355L39.8107 19.7289L37.8027 17.1854Z" fill="#12E0B8"/>
<path d="M132.849 20.3982L128.365 20.0636C130.841 22.2054 132.314 25.0836 132.314 28.4303C132.314 32.5802 130.038 36.1947 126.424 38.3366C129.569 40.2777 131.511 43.5575 131.511 47.3058C131.511 53.3968 126.557 58.3499 119.73 58.3499C113.773 58.3499 109.221 54.6016 108.151 49.113L112.501 47.105C113.037 51.2549 115.848 53.9322 119.73 53.9322C123.88 53.9322 126.758 50.9202 126.758 47.105C126.758 43.2228 123.679 40.3446 119.663 40.3446C117.053 40.3446 114.978 41.4156 113.171 43.6913L111.029 40.0769C111.698 39.4075 112.367 38.8721 113.104 38.4035C109.422 36.3955 107.08 32.7141 107.08 28.3634C107.08 21.9377 112.234 16.7168 119.931 16.4491L133.719 15.9136L132.849 20.3982ZM119.73 20.9337C115.312 20.9337 111.899 24.2804 111.899 28.5642C111.899 32.848 115.312 36.0608 119.73 36.0608C124.081 36.0608 127.495 32.848 127.495 28.5642C127.495 24.2804 124.081 20.9337 119.73 20.9337Z" fill="#253746"/>
<path d="M145.366 21.2014V16.7838L140.547 17.8547V43.9591H145.634V30.3714C145.634 24.5482 148.579 21.67 154.536 21.67V16.7169C150.252 16.7169 147.24 18.2563 145.366 21.2014Z" fill="#253746"/>
<path d="M173.344 37.6004C176.156 39.4745 178.565 40.4116 181.042 40.4116C183.652 40.4116 185.259 38.939 185.259 36.5963C185.259 34.7222 184.188 33.5174 180.707 32.5134L179.569 32.1787C175.486 30.7061 173.211 27.8949 173.211 24.2135C173.211 19.9967 176.624 16.65 181.51 16.65C183.92 16.65 186.597 17.4532 189.007 18.7249L188.137 23.0756C185.928 21.6031 183.385 20.9338 181.644 20.9338C179.235 20.9338 177.829 22.2724 177.829 24.2135C177.829 25.8199 178.766 26.8909 181.912 28.0288L182.983 28.3634C187.601 29.9029 190.078 32.7142 190.078 36.6633C190.078 41.4156 186.464 44.8293 181.109 44.8293C178.231 44.8293 175.152 43.8252 172.541 42.085L173.344 37.6004Z" fill="#253746"/>
<path d="M97.5749 3.73163C99.516 3.73163 100.989 5.27111 100.989 7.14527C100.989 9.08636 99.4491 10.5589 97.5749 10.5589C95.6338 10.5589 94.1613 9.01943 94.1613 7.14527C94.0943 5.20418 95.6338 3.73163 97.5749 3.73163Z" fill="#253746"/>
<path d="M95.0315 17.9217V43.9591H100.118V16.7838L95.0315 17.9217Z" fill="#253746"/>
<path d="M162.903 3.73163C164.844 3.73163 166.316 5.27111 166.316 7.14527C166.316 9.08636 164.777 10.5589 162.903 10.5589C160.961 10.5589 159.489 9.01943 159.489 7.14527C159.422 5.20418 160.961 3.73163 162.903 3.73163Z" fill="#253746"/>
<path d="M160.358 17.9217V43.9591H165.445V16.7838L160.358 17.9217Z" fill="#253746"/>
<path d="M80.8414 8.68475L75.7544 9.82263V17.1854H72.5415L71.6714 21.67H75.6874V36.1278C75.6874 41.2817 78.7664 44.4276 83.7865 44.4276C85.5268 44.4276 87.2001 44.026 88.4049 43.4905V38.939C87.4009 39.4075 85.7945 39.8092 84.5897 39.8092C82.1801 39.8092 80.7744 38.3366 80.7744 35.7262V21.67H88.4049V17.1854H80.8414V8.68475Z" fill="#253746"/>
</svg>
