<svg width="25" height="25" viewBox="0 0 25 25" fill="none" xmlns="http://www.w3.org/2000/svg">
<path d="M3.87695 18.3494V13.3494C3.87695 12.819 4.08767 12.3103 4.46274 11.9352C4.83781 11.5601 5.34652 11.3494 5.87695 11.3494V8.3494C5.87695 7.28853 6.29838 6.27111 7.04853 5.52097C7.79867 4.77082 8.81609 4.3494 9.87695 4.3494H15.877C16.9378 4.3494 17.9552 4.77082 18.7054 5.52097C19.4555 6.27111 19.877 7.28853 19.877 8.3494V11.3494C20.4074 11.3494 20.9161 11.5601 21.2912 11.9352C21.6662 12.3103 21.877 12.819 21.877 13.3494V18.3494C21.877 18.8798 21.6662 19.3885 21.2912 19.7636C20.9161 20.1387 20.4074 20.3494 19.877 20.3494C19.3465 20.3494 18.8378 20.1387 18.4627 19.7636C18.0877 19.3885 17.877 18.8798 17.877 18.3494H7.87695C7.87695 18.8798 7.66624 19.3885 7.29117 19.7636C6.91609 20.1387 6.40739 20.3494 5.87695 20.3494C5.34652 20.3494 4.83781 20.1387 4.46274 19.7636C4.08767 19.3885 3.87695 18.8798 3.87695 18.3494ZM9.87695 6.3494C9.34652 6.3494 8.83781 6.56011 8.46274 6.93518C8.08767 7.31025 7.87695 7.81896 7.87695 8.3494V11.3494H17.877V8.3494C17.877 7.81896 17.6662 7.31025 17.2912 6.93518C16.9161 6.56011 16.4074 6.3494 15.877 6.3494H9.87695ZM6.87695 15.3494C7.14217 15.3494 7.39652 15.244 7.58406 15.0565C7.7716 14.869 7.87695 14.6146 7.87695 14.3494C7.87695 14.0842 7.7716 13.8298 7.58406 13.6423C7.39652 13.4548 7.14217 13.3494 6.87695 13.3494C6.61174 13.3494 6.35738 13.4548 6.16985 13.6423C5.98231 13.8298 5.87695 14.0842 5.87695 14.3494C5.87695 14.6146 5.98231 14.869 6.16985 15.0565C6.35738 15.244 6.61174 15.3494 6.87695 15.3494ZM18.877 15.3494C19.1422 15.3494 19.3965 15.244 19.5841 15.0565C19.7716 14.869 19.877 14.6146 19.877 14.3494C19.877 14.0842 19.7716 13.8298 19.5841 13.6423C19.3965 13.4548 19.1422 13.3494 18.877 13.3494C18.6117 13.3494 18.3574 13.4548 18.1698 13.6423C17.9823 13.8298 17.877 14.0842 17.877 14.3494C17.877 14.6146 17.9823 14.869 18.1698 15.0565C18.3574 15.244 18.6117 15.3494 18.877 15.3494Z" fill="#12E0B8"/>
</svg>
