<svg width="32" height="25" viewBox="0 0 32 25" fill="none" xmlns="http://www.w3.org/2000/svg">
<path fill-rule="evenodd" clip-rule="evenodd" d="M8.19218 0.483583C7.13047 0.641537 6.35845 1.54953 6.35845 2.64032V3.05169L6.11713 2.95087C5.60298 2.73606 5.34434 2.79904 3.49252 3.59034C1.60264 4.39792 1.53348 4.43842 1.14806 4.96286C-0.976251 7.85328 0.973889 13.0986 6.10196 18.2874C11.6006 23.8511 17.3908 25.9516 20.0364 23.3423C20.8421 22.5477 22.0457 19.2571 21.7711 18.5999C21.7137 18.4625 21.6668 18.3383 21.6668 18.3238C21.6668 18.3093 23.513 18.2975 25.7695 18.2975C32.2783 18.2975 31.7041 19.2045 31.6729 8.97336L31.652 2.11942L31.4617 1.73198C31.2163 1.23237 30.8443 0.859054 30.3647 0.631239L29.982 0.449418L19.2661 0.439885C13.3724 0.434596 8.38917 0.454288 8.19218 0.483583ZM29.9851 2.11628L30.1559 2.28704V9.3782V16.4694L29.9725 16.6528L29.789 16.8363L24.5624 16.8362L19.3357 16.8361L18.2225 16.1677C16.1682 14.9344 16.3572 14.9379 14.2013 16.0933C13.3675 16.5402 12.6628 16.9059 12.6353 16.9059C12.3838 16.9059 7.80133 12.0958 7.88267 11.9173C7.93166 11.8098 8.30337 11.1113 8.70876 10.365C9.37293 9.14224 9.44871 8.96613 9.47522 8.58272C9.50939 8.08931 9.56742 8.22159 8.57725 6.53461L7.8197 5.24391V3.80876V2.3736L7.99985 2.15957L8.18 1.94546H18.9971H29.8143L29.9851 2.11628ZM9.39972 2.99032C9.17247 3.16908 9.04527 3.53738 9.13329 3.762C9.22493 3.9958 9.44127 4.19237 12.7253 7.02517C14.3327 8.41169 15.6546 9.58159 15.6629 9.62501C15.6712 9.66843 14.7522 10.4398 13.6206 11.3392C11.0313 13.3972 10.9422 13.4977 11.2783 13.9852C11.7394 14.6543 11.8067 14.623 14.4939 12.4846C15.7703 11.469 16.8393 10.647 16.8694 10.658C16.8996 10.6691 17.3196 11.0145 17.8029 11.4257C19.0535 12.4898 18.9798 12.4914 20.2624 11.372L21.1884 10.5639L21.445 10.7575C21.5861 10.8639 23.0547 11.9917 24.7087 13.2637C28.416 16.1148 28.4163 16.115 28.7983 15.3764C29.0909 14.8106 29.0793 14.7987 25.5226 12.0632C23.8037 10.7412 22.3891 9.63698 22.379 9.60929C22.3689 9.58166 23.7936 8.3181 25.5451 6.80132C29.1629 3.66827 29.085 3.75267 28.8257 3.24555C28.3827 2.37924 28.6043 2.2359 23.3759 6.76785C21.0391 8.79356 19.09 10.4654 19.0447 10.4832C18.9995 10.5009 17.0908 8.89251 14.803 6.9089C12.5153 4.92529 10.517 3.20088 10.3623 3.07688C10.0265 2.80759 9.67249 2.77579 9.39972 2.99032ZM6.80343 6.38647C8.25104 8.83865 8.16887 8.32144 7.35196 9.83898C5.88841 12.5577 5.72392 12.0443 9.16592 15.5015C12.6079 18.9587 12.2237 18.8189 14.6635 17.502C15.9358 16.8153 16.2084 16.6924 16.3335 16.7495C16.5395 16.8436 20.2949 19.0624 20.3727 19.136C20.4093 19.1706 20.2686 19.5805 20.0346 20.1207C19.8141 20.6297 19.5112 21.3295 19.3615 21.6759C19.1092 22.2594 19.0623 22.322 18.7253 22.5254C13.4489 25.7102 -1.01563 11.2263 2.21052 5.98838L2.44189 5.61277L3.96527 4.96641C4.80312 4.61091 5.50884 4.31804 5.53354 4.31567C5.55824 4.31324 6.12973 5.24509 6.80343 6.38647Z" fill="white"/>
</svg>
