<svg width="25" height="25" viewBox="0 0 25 25" fill="none" xmlns="http://www.w3.org/2000/svg">
<path d="M15.877 4.3494H6.87695V20.3494H18.877V7.3494H15.877V4.3494ZM6.87695 2.3494H16.877L20.877 6.3494V20.3494C20.877 20.8798 20.6662 21.3885 20.2912 21.7636C19.9161 22.1387 19.4074 22.3494 18.877 22.3494H6.87695C6.34652 22.3494 5.83781 22.1387 5.46274 21.7636C5.08767 21.3885 4.87695 20.8798 4.87695 20.3494V4.3494C4.87695 3.81896 5.08767 3.31025 5.46274 2.93518C5.83781 2.56011 6.34652 2.3494 6.87695 2.3494ZM8.87695 11.3494H16.877V13.3494H8.87695V11.3494ZM8.87695 15.3494H16.877V17.3494H8.87695V15.3494Z" fill="#12E0B8"/>
</svg>
