<svg width="24" height="25" viewBox="0 0 24 25" fill="none" xmlns="http://www.w3.org/2000/svg">
<path d="M21.44 11.9577L12.25 21.1477C11.1242 22.2736 9.59718 22.9061 8.005 22.9061C6.41282 22.9061 4.88584 22.2736 3.76 21.1477C2.63416 20.0219 2.00166 18.4949 2.00166 16.9027C2.00166 15.3105 2.63416 13.7836 3.76 12.6577L12.95 3.46772C13.7006 2.71716 14.7185 2.29549 15.78 2.29549C16.8415 2.29549 17.8594 2.71716 18.61 3.46772C19.3606 4.21828 19.7822 5.23626 19.7822 6.29772C19.7822 7.35917 19.3606 8.37716 18.61 9.12772L9.41 18.3177C9.03472 18.693 8.52573 18.9038 7.995 18.9038C7.46427 18.9038 6.95528 18.693 6.58 18.3177C6.20472 17.9424 5.99389 17.4334 5.99389 16.9027C5.99389 16.372 6.20472 15.863 6.58 15.4877L15.07 7.00772" stroke="#616161" stroke-width="2" stroke-linecap="round" stroke-linejoin="round"/>
</svg>
